HIERARCHY
ROOT Hips
{
	OFFSET	0.00	0.00	0.00
	CHANNELS 6 Xposition Yposition Zposition Zrotation Xrotation Yrotation
	JOINT LeftUpLeg
	{
		OFFSET	 0.126116	-0.014019	-0.065224
		CHANNELS 3 Zrotation Xrotation Yrotation
		JOINT LeftLeg
		{
			OFFSET	 0.000000	 0.000000	 0.569914
			CHANNELS 3 Zrotation Xrotation Yrotation
			JOINT LeftFoot
			{
				OFFSET	 0.000000	 0.000000	 0.544423
				CHANNELS 3 Zrotation Xrotation Yrotation
				JOINT LeftToeBase
				{
					OFFSET	 0.000000	 0.000000	 0.207117
					CHANNELS 3 Zrotation Xrotation Yrotation
					End Site
					{
						OFFSET	 0.000000	 0.000000	 0.207117
					}
				}
			}
		}
	}
	JOINT RightUpLeg
	{
		OFFSET	-0.124023	-0.008373	-0.065224
		CHANNELS 3 Zrotation Xrotation Yrotation
		JOINT RightLeg
		{
			OFFSET	 0.000000	 0.000000	 0.570047
			CHANNELS 3 Zrotation Xrotation Yrotation
			JOINT RightFoot
			{
				OFFSET	 0.000000	 0.000000	 0.544354
				CHANNELS 3 Zrotation Xrotation Yrotation
				JOINT RightToeBase
				{
					OFFSET	 0.000000	 0.000000	 0.207540
					CHANNELS 3 Zrotation Xrotation Yrotation
					End Site
					{
						OFFSET	 0.000000	 0.000000	 0.207540
					}
				}
			}
		}
	}
	JOINT Spine
	{
		OFFSET	 0.000184	-0.007763	 0.117403
		CHANNELS 3 Zrotation Xrotation Yrotation
		JOINT Spine1
		{
			OFFSET	 0.000000	 0.000000	 0.137269
			CHANNELS 3 Zrotation Xrotation Yrotation
			JOINT Spine2
			{
				OFFSET	 0.000000	 0.000000	 0.156879
				CHANNELS 3 Zrotation Xrotation Yrotation
				JOINT LeftShoulder
				{
					OFFSET	 0.080501	-0.002496	 0.160144
					CHANNELS 3 Zrotation Xrotation Yrotation
					JOINT LeftArm
					{
						OFFSET	 0.000000	 0.000000	 0.164363
						CHANNELS 3 Zrotation Xrotation Yrotation
						JOINT LeftForeArm
						{
							OFFSET	 0.000000	 0.000000	 0.364576
							CHANNELS 3 Zrotation Xrotation Yrotation
							JOINT LeftHand
							{
								OFFSET	 0.000000	 0.000000	 0.360812
								CHANNELS 3 Zrotation Xrotation Yrotation
								JOINT LeftHandIndex1
								{
									OFFSET	 0.000000	 0.000000	 0.086006
									CHANNELS 3 Zrotation Xrotation Yrotation
									JOINT LeftHandIndex2
									{
										OFFSET	 0.000000	 0.000000	 0.047236
										CHANNELS 3 Zrotation Xrotation Yrotation
										JOINT LeftHandIndex3
										{
											OFFSET	-0.004284	-0.000551	 0.038166
											CHANNELS 3 Zrotation Xrotation Yrotation
											End Site
											{
												OFFSET	-0.004284	-0.000551	 0.038166
											}
										}
									}
								}
							}
						}
					}
				}
				JOINT Neck
				{
					OFFSET	 0.000000	 0.000000	 0.176489
					CHANNELS 3 Zrotation Xrotation Yrotation
					JOINT Head
					{
						OFFSET	 0.000000	-0.001747	 0.077940
						CHANNELS 3 Zrotation Xrotation Yrotation
						End Site
						{
							OFFSET	 0.000000	-0.001747	 0.077940
						}
					}
				}
				JOINT RightShoulder
				{
					OFFSET	-0.080363	 0.000306	 0.159706
					CHANNELS 3 Zrotation Xrotation Yrotation
					JOINT RightArm
					{
						OFFSET	 0.000000	 0.000000	 0.164196
						CHANNELS 3 Zrotation Xrotation Yrotation
						JOINT RightForeArm
						{
							OFFSET	 0.000000	 0.000000	 0.365611
							CHANNELS 3 Zrotation Xrotation Yrotation
							JOINT RightHand
							{
								OFFSET	 0.000000	 0.000000	 0.360648
								CHANNELS 3 Zrotation Xrotation Yrotation
								JOINT RightHandIndex1
								{
									OFFSET	 0.000000	 0.000000	 0.069977
									CHANNELS 3 Zrotation Xrotation Yrotation
									JOINT RightHandIndex2
									{
										OFFSET	 0.000000	 0.000000	 0.052305
										CHANNELS 3 Zrotation Xrotation Yrotation
										JOINT RightHandIndex3
										{
											OFFSET	 0.009002	-0.000782	 0.042196
											CHANNELS 3 Zrotation Xrotation Yrotation
											End Site
											{
												OFFSET	 0.009002	-0.000782	 0.042196
											}
										}
									}
								}
							}
						}
					}
				}
			}
		}
	}
}
MOTION
Frames:    13
Frame Time: 0.03333334
 0.014223	 0.063135	 1.202451	 4.013155	-1.599385	-2.750468	 6.100343	-11.758420	-173.115800	 0.316153	-39.170570	-0.029794	 54.184580	 81.300540	-57.825540	-2.371280	 31.297140	-0.062746	-8.809550	-29.402790	-175.542300	 10.086930	-52.598000	 8.634518	 9.371430	 70.113990	-4.200795	 2.357863	 33.161980	 0.106992	-6.699088	 8.840358	 2.228800	-2.086597	 2.153400	-1.566615	 3.400033	-1.824735	 1.635990	-93.772870	 58.848640	 175.755000	 10.941640	 33.035430	-43.409250	-0.822598	-0.050497	-0.721311	-2.157176	-25.743110	-6.761442	-4.870929	 19.205110	-2.784667	-3.886577	 21.408160	 2.207884	-4.808086	 5.547583	 0.146850	-0.125915	-5.015439	 0.158670	 1.111570	 2.081317	 2.915895	 89.832020	 61.581990	-179.881300	-20.970300	 52.849350	 14.264520	-0.958998	-1.374041	 7.766270	-4.239604	-11.914760	 0.891374	 6.304367	 25.983820	-0.577050	 1.729271	 45.932790	-6.853375	 0.352841	 25.031790	 3.657099
 0.010341	-0.017233	 1.198803	 5.093414	-0.956258	-2.716279	 4.646574	-7.588369	-174.052300	 1.026546	-37.583770	 0.410997	 70.311020	 83.340680	-74.466350	-2.369398	 31.615010	-0.069929	-11.633830	-34.173510	-176.622400	 9.156416	-41.865060	 6.653388	 5.025035	 66.805130	-0.115364	 2.358915	 33.008270	 0.103414	-16.092650	 8.386847	 2.034742	-2.352758	 3.021318	-1.519350	 3.207823	-2.812078	 1.669644	-93.981560	 58.960220	 175.296800	 8.315250	 29.048460	-45.346810	-6.249575	 0.228616	-3.227000	-9.918130	-35.225910	-13.102340	-4.869400	 19.262340	-2.792224	-3.877201	 21.528120	 2.198352	-4.805930	 5.572933	 0.145365	-0.065530	-5.085579	 0.193245	 1.081788	 1.732304	 2.684606	 89.765080	 61.669660	 179.959400	-20.910170	 55.128350	 9.231051	 2.994104	-0.904552	 12.946110	 0.906750	-21.460410	 2.614006	 6.289694	 24.504760	-0.538295	 1.930332	 44.335660	-7.033034	 0.593416	 23.980870	 3.534380
 0.008139	-0.057745	 1.196056	 5.525648	-0.523370	-2.732302	 4.014659	-5.379460	-174.495700	 1.189819	-36.337760	 0.496045	 79.037700	 84.017650	-83.298610	-2.368647	 31.739640	-0.072756	-13.147920	-34.925980	-177.466100	 8.768622	-33.973740	 5.357498	 2.322482	 63.845200	 2.450057	 2.359000	 32.996600	 0.103138	-19.815730	 8.047375	 1.908256	-2.494576	 3.395995	-1.441437	 3.081125	-3.258614	 1.645344	-94.091140	 58.977930	 175.060900	 6.985993	 27.282130	-46.124620	-8.226727	 0.453738	-4.244331	-13.333390	-38.571190	-16.154250	-4.865549	 19.360910	-2.798682	-3.871006	 21.607170	 2.192063	-4.804538	 5.589359	 0.144401	-0.042993	-5.102026	 0.225533	 1.010512	 1.588881	 2.615468	 89.722470	 61.746630	 179.857400	-20.704850	 55.976800	 7.972656	 4.372076	-0.323097	 12.620320	 2.996247	-24.889840	 3.726242	 6.278905	 23.735560	-0.549038	 2.020777	 43.583190	-7.113317	 0.759743	 23.242590	 3.451663
 0.005475	-0.097627	 1.191831	 5.972766	-0.050529	-2.788450	 3.410207	-3.244206	-174.917100	 1.357866	-35.089040	 0.577847	 88.930020	 84.568440	-93.297810	-2.367701	 31.894250	-0.076262	-14.762610	-35.376320	-178.472300	 8.665781	-26.645630	 4.256936	 0.884527	 62.587850	 3.452142	 2.359293	 32.951660	 0.102105	-23.661120	 7.662146	 1.791113	-2.619571	 3.643962	-1.347290	 2.912027	-3.669985	 1.597740	-94.210840	 58.993770	 174.803500	 6.048110	 25.744040	-46.741460	-10.380150	 0.767392	-5.323324	-17.256430	-41.581660	-19.717850	-4.860398	 19.488210	-2.806166	-3.863562	 21.701960	 2.184502	-4.802303	 5.615725	 0.142857	-0.020250	-5.123907	 0.261540	 0.900555	 1.432690	 2.546142	 89.670350	 61.832690	 179.731800	-20.307220	 56.616750	 7.124730	 5.794464	 0.332762	 11.533440	 5.225979	-28.058010	 5.066208	 6.265796	 22.843210	-0.565243	 2.118798	 42.742620	-7.199915	 0.953070	 22.372520	 3.357749
 0.002626	-0.134970	 1.185478	 6.210934	 0.401936	-3.012561	 3.073029	-1.173450	-175.170700	 1.456673	-33.982050	 0.617089	 101.501900	 84.914390	-105.937000	-2.366262	 32.126930	-0.081564	-15.627440	-37.467800	-179.245800	 8.980273	-23.157520	 3.861102	 0.351786	 61.820350	 3.383753	 2.360702	 32.742660	 0.097259	-27.125520	 7.210488	 1.831819	-2.697800	 3.978855	-1.209899	 2.729447	-4.073234	 1.504211	-94.315830	 58.987930	 174.580500	 5.383790	 24.546860	-47.358620	-12.772350	 1.150268	-6.369861	-21.135310	-44.180050	-22.743110	-4.850935	 19.703070	-2.814871	-3.853515	 21.829540	 2.174292	-4.796581	 5.683051	 0.138908	-0.010144	-5.163852	 0.297160	 0.739211	 1.283046	 2.525012	 89.594240	 61.918430	 179.547800	-19.764910	 57.114640	 6.018003	 6.944769	 0.886370	 11.291260	 7.058094	-30.562830	 6.151361	 6.247600	 21.787300	-0.602282	 2.213053	 41.908760	-7.282770	 1.192665	 21.276540	 3.244789
-0.000311	-0.168869	 1.178573	 6.388703	 0.755605	-3.217717	 2.781381	 0.829529	-175.420000	 1.533151	-32.881470	 0.640923	 113.040200	 85.080470	-117.523300	-2.364265	 32.439680	-0.088736	-16.077340	-40.190230	-179.886800	 9.331241	-22.150780	 3.819018	 0.845664	 63.210960	 2.312733	 2.360248	 32.810670	 0.098834	-30.036380	 6.814735	 1.877755	-2.754249	 4.297747	-1.082613	 2.545818	-4.432860	 1.407635	-94.399290	 58.980710	 174.403700	 4.897199	 23.651590	-47.868150	-14.862060	 1.547476	-7.279106	-24.462560	-45.777480	-25.349270	-4.841594	 19.905360	-2.820987	-3.843347	 21.958170	 2.163969	-4.789316	 5.768594	 0.133881	 0.000820	-5.204370	 0.324338	 0.574423	 1.142968	 2.497768	 89.528330	 61.986840	 179.387400	-19.164630	 57.495860	 4.779598	 7.898942	 1.374211	 11.527100	 8.559596	-32.234980	 7.003362	 6.229134	 20.762860	-0.639989	 2.316928	 40.959500	-7.373575	 1.418028	 20.227940	 3.142088
-0.003157	-0.201137	 1.172170	 6.450359	 0.942467	-3.396203	 2.566527	 3.042452	-175.671400	 1.570266	-31.419970	 0.634782	 120.325500	 85.305980	-124.811400	-2.360767	 32.971470	-0.101001	-15.909230	-42.459900	 179.768800	 9.327072	-21.956610	 3.804651	 3.088793	 67.214510	-0.423997	 2.355469	 33.505870	 0.115020	-32.530440	 6.487390	 1.944434	-2.797194	 4.677362	-0.984976	 2.379794	-4.766139	 1.318991	-94.445420	 58.968960	 174.307300	 4.432459	 23.060930	-48.216110	-16.696180	 1.953054	-8.086542	-27.235120	-46.500930	-27.367990	-4.831418	 20.105750	-2.822064	-3.831642	 22.105790	 2.152071	-4.777630	 5.905817	 0.125796	 0.015059	-5.251471	 0.336119	 0.419527	 1.000201	 2.456561	 89.475900	 62.025230	 179.259800	-18.441320	 57.727640	 3.699105	 8.675869	 1.838455	 11.514250	 9.721135	-33.347890	 7.478194	 6.208295	 19.676430	-0.683983	 2.456665	 39.630210	-7.494846	 1.645931	 19.150400	 3.041835
-0.006399	-0.238913	 1.166023	 6.551590	 1.097605	-3.576693	 2.279634	 5.884934	-175.974800	 1.623523	-28.977400	 0.615732	 122.319300	 85.864730	-126.806800	-2.354943	 33.805480	-0.120473	-15.651350	-43.960180	 179.515200	 9.448579	-21.565120	 3.786158	 6.885918	 71.314310	-4.832997	 2.348937	 34.396660	 0.136066	-35.163010	 6.214649	 2.008110	-2.862377	 4.831851	-0.917874	 2.166091	-5.058451	 1.225165	-94.492890	 58.949820	 174.209400	 4.046431	 22.560890	-48.277490	-18.604840	 2.448093	-8.953852	-29.971960	-46.722340	-29.382650	-4.826436	 20.304220	-2.852255	-3.817297	 22.285870	 2.137496	-4.761794	 6.091373	 0.114808	 0.038733	-5.305939	 0.347189	 0.231134	 0.852602	 2.371204	 89.421620	 62.043500	 179.128000	-17.541050	 57.696330	 3.663589	 9.627263	 2.362505	 9.026122	 10.904460	-34.019780	 7.813988	 6.186412	 18.418920	-0.716206	 2.613422	 38.063630	-7.629578	 1.905570	 17.902260	 2.932164
-0.009581	-0.278293	 1.161428	 6.717241	 1.118013	-3.703997	 1.925017	 9.047412	-176.333600	 1.714549	-26.101630	 0.599246	 116.386100	 86.733020	-120.893600	-2.344567	 35.169690	-0.152961	-15.716370	-43.938960	 179.178500	 9.883251	-21.028630	 3.857108	 10.571810	 73.620880	-9.306032	 2.340119	 35.508170	 0.162824	-37.644580	 6.180809	 2.052487	-2.978951	 4.537381	-0.948072	 1.938027	-5.240156	 1.163279	-94.527310	 58.917340	 174.141500	 3.737336	 22.337370	-47.838120	-20.165960	 2.964259	-9.757784	-32.362380	-46.386540	-31.322080	-4.837190	 20.428340	-2.950933	-3.800845	 22.491320	 2.120798	-4.740208	 6.343483	 0.099803	 0.079761	-5.361519	 0.352501	 0.050906	 0.737505	 2.199495	 89.380930	 62.000680	 179.031100	-16.604150	 57.802780	 1.966730	 10.456720	 2.873977	 9.831527	 12.047120	-34.202770	 7.947889	 6.171363	 17.134920	-0.705466	 2.771428	 36.398860	-7.763875	 2.166514	 16.626250	 2.826948
-0.012597	-0.314162	 1.157827	 6.854348	 1.116857	-3.724497	 1.638130	 11.059330	-176.751100	 1.863370	-25.583860	 0.652471	 124.458800	 87.078120	-129.039300	-2.330669	 36.797470	-0.192883	-15.673770	-43.448960	 178.835700	 10.143250	-21.527850	 4.042481	 14.311440	 75.637840	-13.469370	 2.335595	 36.044300	 0.175939	-39.642480	 6.134063	 2.037076	-3.129186	 4.133345	-1.078442	 1.715569	-5.296139	 1.138574	-94.541950	 58.951870	 174.104800	 3.596564	 22.302110	-47.192400	-21.469990	 3.431557	-10.415060	-33.962860	-45.629700	-32.503250	-4.848980	 20.514620	-3.045160	-3.787087	 22.662250	 2.106827	-4.719586	 6.583544	 0.085403	 0.115699	-5.407839	 0.342179	-0.113446	 0.654542	 2.061931	 89.357970	 61.922890	 178.978800	-15.838590	 57.772570	 0.607688	 11.152070	 3.337408	 10.488010	 12.853800	-33.847030	 7.825373	 6.166483	 16.022160	-0.654943	 2.883827	 35.159230	-7.858378	 2.388694	 15.523270	 2.741429
-0.016313	-0.353709	 1.154577	 6.987956	 1.079641	-3.582226	 1.334695	 13.076110	-177.369400	 2.114465	-25.314570	 0.753491	 125.623700	 87.761830	-130.282500	-2.305188	 39.359870	-0.258597	-15.537210	-42.529570	 178.375500	 10.119140	-22.663680	 4.234527	 15.366170	 76.375140	-14.458290	 2.337523	 35.819190	 0.170416	-41.569770	 6.062391	 1.912945	-3.271371	 3.691953	-1.277548	 1.450045	-5.295036	 1.114736	-94.529050	 59.105540	 174.106500	 3.550819	 22.498080	-46.352150	-22.822580	 3.948575	-11.079240	-35.279750	-44.389510	-33.325220	-4.866352	 20.566820	-3.161554	-3.773461	 22.830910	 2.092991	-4.694091	 6.879243	 0.067545	 0.154732	-5.453779	 0.303330	-0.286069	 0.592838	 1.938021	 89.356770	 61.764330	 178.981800	-15.120030	 57.599840	-0.670976	 11.917210	 3.850500	 11.153990	 13.545250	-32.990450	 7.484179	 6.177863	 14.837880	-0.524416	 2.966337	 34.218550	-7.927190	 2.620874	 14.354970	 2.656164
-0.020889	-0.398058	 1.152077	 7.148026	 0.946443	-3.253807	 1.211480	 14.604980	-178.294600	 2.140915	-26.217320	 0.790193	 119.567900	 88.782600	-123.936800	-2.257117	 43.228150	-0.365824	-15.032120	-41.221260	 177.982400	 9.204421	-24.304460	 4.134994	 13.022300	 76.642480	-10.889770	 2.339286	 35.608700	 0.165279	-43.314980	 6.027589	 1.582999	-3.348187	 3.272934	-1.354241	 1.113832	-5.259644	 0.989372	-94.502000	 59.247830	 174.140600	 3.665971	 22.800810	-45.396980	-24.316030	 4.534734	-11.764140	-35.782290	-42.421010	-33.110800	-4.881628	 20.631850	-3.270642	-3.761915	 22.973140	 2.081264	-4.663740	 7.229537	 0.046210	 0.201660	-5.479984	 0.268829	-0.496309	 0.565858	 1.899599	 89.355370	 61.597760	 178.984500	-14.382860	 57.347350	-1.834516	 12.740850	 4.432705	 11.842770	 14.055360	-31.396710	 6.832864	 6.208790	 13.510970	-0.307977	 3.048985	 33.249500	-7.995590	 2.864776	 13.111040	 2.571212
-0.025341	-0.436225	 1.151138	 7.300153	 0.734162	-2.789538	 1.337261	 14.804610	-179.353400	 1.904304	-28.822100	 0.748146	 64.014370	 89.609830	-67.702770	-2.184638	 47.658630	-0.503980	-14.151670	-40.159030	 177.801800	 7.439867	-26.028470	 3.617279	 7.544277	 75.699650	-3.078206	 2.340461	 35.467230	 0.161829	-44.415610	 6.047989	 1.090639	-3.271857	 3.082684	-1.201203	 0.782391	-5.239491	 0.746819	-94.465160	 59.341830	 174.203900	 3.906054	 23.130910	-44.678910	-25.619640	 5.050101	-12.316990	-35.482550	-40.223730	-32.000890	-4.890708	 20.695700	-3.344206	-3.755703	 23.049470	 2.074960	-4.635247	 7.556723	 0.026087	 0.246172	-5.476741	 0.247826	-0.692910	 0.584043	 1.970085	 89.354100	 61.463150	 178.986400	-13.800430	 57.107060	-2.586123	 13.452510	 4.944253	 12.396320	 14.285390	-29.499940	 6.071393	 6.256187	 12.346450	-0.045290	 3.112407	 32.487110	-8.047721	 3.063252	 12.086860	 2.505655
